<?xml version="1.0" encoding="UTF-8" standalone="no"?>
<!DOCTYPE svg PUBLIC "-//W3C//DTD SVG 1.1//EN" "http://www.w3.org/Graphics/SVG/1.1/DTD/svg11.dtd">
<svg width="100%" height="100%" viewBox="0 0 495 516" version="1.1" xmlns="http://www.w3.org/2000/svg" xmlns:xlink="http://www.w3.org/1999/xlink" xml:space="preserve" xmlns:serif="http://www.serif.com/" style="fill-rule:evenodd;clip-rule:evenodd;stroke-linejoin:round;stroke-miterlimit:2;">
    <g transform="matrix(1,0,0,1,-1919.912224,-80.002684)">
        <g transform="matrix(0.705607,0,0,1,1897.721328,-280.57151)">
            <g transform="matrix(3.554118,0,0,2.507812,-589.562914,0)">
                <path d="M262.372,221.446C266.967,183.471 268.437,183.71 271.947,145.595C272.19,142.963 274.021,143.717 274.133,144.619C275.125,152.594 273.953,152.637 275.229,160.543C279.501,187.016 281.505,209.425 283.31,221.62C283.4,226.681 282.767,227.868 293.757,235.06C294.264,235.392 294.242,235.332 296.596,236.354C298.973,236.905 332.992,240.685 357.538,244.262C366.69,245.595 374.478,245.177 371.362,247.262C370.099,248.107 369.859,247.127 352.51,249.568C314.903,254.86 301.108,256.274 296.624,256.733C295.514,256.998 289.847,258.352 284.82,264.737C283.802,266.03 283.566,268.267 283.247,271.36C278.423,315.908 274.628,333.544 274.273,347.447C274.219,349.548 272.394,349.813 272.165,347.67C270.33,330.45 265.65,298.851 262.471,271.516C262.308,270.486 264.085,261.775 250.762,257.074C246.312,255.83 246.189,256.777 193.521,249.356C177.076,247.038 177.025,247.544 175.585,247.313C174.687,247.168 173.916,245.509 176.452,245.36C195.101,244.262 230.271,237.991 245.468,237.118C247.891,236.979 247.831,237.176 250.433,236.412C260.227,230.664 262.025,222.938 262.372,221.446Z" style="fill:rgb(15,17,20);"/>
            </g>
            <g transform="matrix(3.554118,0,0,2.507812,-589.562914,0)">
                <path d="M250.762,257.074C264.085,261.775 262.308,270.486 262.471,271.516C259.119,273.746 259.059,273.555 255.826,275.944C212.349,308.08 212.391,307.995 208.728,310.93C208.583,311.047 201.681,315.144 206.762,309.691C224.145,291.032 235.454,271.367 250.762,257.074Z" style="fill:rgb(9,91,219);"/>
            </g>
            <g transform="matrix(3.554118,0,0,2.507812,-589.562914,0)">
                <path d="M296.624,256.733C296.718,257.23 296.098,257.354 296.914,258.274C299.173,260.823 309.75,272.76 323.946,291.162C337.811,309.136 343.156,312.6 339.516,312.369C339.249,312.352 314.319,293.615 312.135,291.974C285.913,272.267 286.008,272.023 283.247,271.36C283.566,268.267 283.802,266.03 284.82,264.737C289.847,258.352 295.514,256.998 296.624,256.733Z" style="fill:rgb(9,89,218);"/>
            </g>
            <g transform="matrix(3.554118,0,0,2.507812,-589.562914,0)">
                <path d="M283.31,221.62C285.411,221.183 285.96,221.069 305.22,206.142C307.94,204.034 338.019,180.722 339.46,180.093C344.266,177.995 339.057,182.444 317.939,208.843C298.078,233.671 297.79,233.396 296.185,235.644C296.026,235.866 296.755,236.132 296.596,236.354C294.242,235.332 294.264,235.392 293.757,235.06C282.767,227.868 283.4,226.681 283.31,221.62Z" style="fill:rgb(8,90,220);"/>
            </g>
            <g transform="matrix(3.554118,0,0,2.507812,-589.562914,0)">
                <path d="M262.372,221.446C262.025,222.938 260.227,230.664 250.433,236.412C249.273,234.903 249.29,234.905 249.18,234.783C224.55,207.271 219.04,196.122 209.257,185.684C194.664,170.114 220.794,191.803 235.219,201.905C257.479,217.495 258.81,221.259 262.372,221.446Z" style="fill:rgb(9,91,219);"/>
            </g>
        </g>
    </g>
</svg>
